<svg xmlns="http://www.w3.org/2000/svg" id="icon" width="80" height="80" viewBox="0 0 80 80"><rect id="Rectangle_79" data-name="Rectangle 79" width="80" height="80" rx="12" fill="#ebf2fc"></rect><g id="Group_44" data-name="Group 44" transform="translate(17654 19055)"><rect id="Rectangle_85" data-name="Rectangle 85" width="46" height="46" transform="translate(-17637 -19038)" fill="#442aff" opacity="0"></rect><g id="svgexport-17_24_" data-name="svgexport-17 (24)" transform="translate(-17633.27 -19035.08)"><path id="Path_20" data-name="Path 20" d="M15.358,28.762l1.315.26a8.189,8.189,0,0,0,.467,1.212l-.8,1.085a.559.559,0,0,0,.046.715l2.239,2.342a.552.552,0,0,0,.71.075l1.119-.75a7.457,7.457,0,0,0,1.188.525l.2,1.321a.556.556,0,0,0,.537.473l3.237.069h.012a.55.55,0,0,0,.542-.444l.265-1.321a8.109,8.109,0,0,0,1.223-.473l.86.635a.3.3,0,0,0,.063.04l.15.115a.559.559,0,0,0,.715-.046l2.342-2.239a.56.56,0,0,0,.081-.71l-.738-1.119a7.08,7.08,0,0,0,.525-1.188l1.333-.208a.551.551,0,0,0,.467-.537l.081-3.237a.554.554,0,0,0-.444-.56l-1.31-.265a7.72,7.72,0,0,0-.473-1.217l.8-1.079a.552.552,0,0,0-.046-.715l-2.233-2.342a.56.56,0,0,0-.71-.081L28,19.849a8.085,8.085,0,0,0-1.188-.525L26.608,18a.556.556,0,0,0-.537-.473l-3.237-.063a.564.564,0,0,0-.554.444l-.265,1.321A7.391,7.391,0,0,0,20.8,19.7l-1.079-.79a.55.55,0,0,0-.71.046l-2.342,2.239a.56.56,0,0,0-.081.71l.738,1.113c-.075.133-.144.277-.213.427a8.2,8.2,0,0,0-.312.767l-1.333.208a.551.551,0,0,0-.467.537l-.081,3.237a.542.542,0,0,0,.438.571Zm.733-3.306,1.212-.19a.547.547,0,0,0,.444-.392,7.117,7.117,0,0,1,.358-.946c.115-.242.225-.444.335-.629a.552.552,0,0,0-.012-.6l-.669-1.015,1.673-1.6.981.721a.554.554,0,0,0,.594.04,6.811,6.811,0,0,1,1.54-.612l.075-.017a.546.546,0,0,0,.4-.427l.242-1.2,2.308.046.185,1.206a.562.562,0,0,0,.392.45,6.739,6.739,0,0,1,1.575.692.565.565,0,0,0,.594-.012l1.015-.681,1.587,1.667-.727.981a.564.564,0,0,0-.04.6,6.664,6.664,0,0,1,.623,1.61.553.553,0,0,0,.427.41l1.188.242-.058,2.308-1.212.19a.547.547,0,0,0-.444.392,6.411,6.411,0,0,1-.7,1.569.542.542,0,0,0,.012.594l.675,1.021L29,33.481l-.975-.721a.554.554,0,0,0-.594-.04,6.412,6.412,0,0,1-1.615.623.569.569,0,0,0-.415.427l-.242,1.206-2.308-.046-.179-1.2a.552.552,0,0,0-.4-.45,6.339,6.339,0,0,1-1.569-.7.564.564,0,0,0-.6.012l-1.021.687-1.592-1.667.727-.987a.545.545,0,0,0,.04-.588,6.859,6.859,0,0,1-.617-1.61.551.551,0,0,0-.433-.415l-1.194-.237Z" transform="translate(-5.774 -6.507)" fill="#442aff"></path><path id="Path_21" data-name="Path 21" d="M26.225,34.467a4.359,4.359,0,0,0,3.237,0,4.353,4.353,0,1,0-3.237,0Zm1.627-7.31a3.258,3.258,0,1,1-3.26,3.254,3.258,3.258,0,0,1,3.26-3.254Z" transform="translate(-9.4 -10.141)" fill="#442aff"></path><path id="Path_22" data-name="Path 22" d="M37.536,17a.552.552,0,0,0-.606.121L32.5,21.552V7.538a3.148,3.148,0,0,0-3.144-3.144H27.971V3.7a1.615,1.615,0,0,0-1.61-1.615H26.3A1.612,1.612,0,0,0,24.694,3.7v.7H22.524V3.7a1.642,1.642,0,0,0-3.283,0v.7H17.072V3.7a1.642,1.642,0,0,0-3.283,0v.7H11.62V3.7a1.642,1.642,0,0,0-3.283,0v.7H6.959A3.143,3.143,0,0,0,3.814,7.532v3.139H2.983A1.713,1.713,0,0,0,1.27,12.384V31.458c0,.006.006.017.006.023a.523.523,0,0,0,.035.185c0,.006,0,.012.006.012v.006l2.562,5.729a.465.465,0,0,0,.1.15c.012.012.029.023.04.035a.825.825,0,0,0,.115.081c.017.006.035.017.052.023a.563.563,0,0,0,.19.04H37.317a.554.554,0,0,0,.554-.554V17.507A.524.524,0,0,0,37.536,17ZM25.813,3.7a.5.5,0,0,1,.5-.5h.058a.5.5,0,0,1,.5.5v2.59a.5.5,0,0,1-.5.5h-.058a.5.5,0,0,1-.5-.5Zm-5.446,0a.518.518,0,0,1,.56-.5.5.5,0,0,1,.5.5V4.93c0,.006-.006.012-.006.017s.006.012.006.017V6.286a.518.518,0,0,1-.56.5.5.5,0,0,1-.5-.5Zm-5.452,0a.518.518,0,0,1,.56-.5.5.5,0,0,1,.5.5v2.59a.518.518,0,0,1-.56.5.5.5,0,0,1-.5-.5Zm-5.446,0a.518.518,0,0,1,.56-.5.5.5,0,0,1,.5.5V4.93c0,.006-.006.012-.006.017s.006.012.006.017V6.286a.518.518,0,0,1-.56.5.5.5,0,0,1-.5-.5ZM4.939,7.538A2.035,2.035,0,0,1,6.976,5.507H8.355v.785a1.642,1.642,0,0,0,3.283,0V5.5h2.169v.785a1.642,1.642,0,0,0,3.283,0V5.5h2.169v.785a1.642,1.642,0,0,0,3.283,0V5.5h2.169v.785A1.615,1.615,0,0,0,26.321,7.9h.058a1.612,1.612,0,0,0,1.61-1.615V5.5h1.385A2.034,2.034,0,0,1,31.4,7.532V22.659l-14,13.985H5.245l.583-1.3,1.633-3.646a.574.574,0,0,0,.046-.219V12.39a1.713,1.713,0,0,0-1.713-1.713H4.939Zm1.454,8.746V30.909H4.945V16.284ZM3.832,30.909H2.383V16.284H3.837V30.909Zm2.262,1.113L4.6,35.363l-.213.479L2.678,32.029H6.093ZM2.383,12.39a.606.606,0,0,1,.606-.606h2.8a.606.606,0,0,1,.606.606v2.781H2.383ZM35.73,36.644v-.7a.554.554,0,1,0-1.108,0v.7H32.615v-.7a.554.554,0,0,0-1.108,0v.7H29.5v-.7a.554.554,0,1,0-1.108,0v.7H26.384v-.7a.554.554,0,1,0-1.108,0v.7H23.269v-.7a.554.554,0,0,0-1.108,0v.7H18.988L32.349,23.282l4.431-4.431v4.281h-.773a.554.554,0,1,0,0,1.108h.773v2.008h-.773a.554.554,0,1,0,0,1.108h.773v2.008h-.773a.554.554,0,1,0,0,1.108h.773v2.008h-.773a.554.554,0,1,0,0,1.108h.773v3.052H35.73Z" fill="#442aff"></path><path id="Path_23" data-name="Path 23" d="M51.79,43.919a.552.552,0,0,0-.606.121l-6.323,6.329a.554.554,0,0,0,.392.946h6.329a.554.554,0,0,0,.554-.554V44.432A.568.568,0,0,0,51.79,43.919Zm-.767,6.289H46.586l4.437-4.431Z" transform="translate(-18.373 -17.682)" fill="#442aff"></path></g></g></svg>