<svg xmlns="http://www.w3.org/2000/svg" width="80" height="80" viewBox="0 0 80 80"><g id="icon" transform="translate(-80 -1710)"><rect id="Rectangle_79" data-name="Rectangle 79" width="80" height="80" rx="12" transform="translate(80 1710)" fill="#ebf2fc"></rect><g id="Group_55" data-name="Group 55" transform="translate(17866 20826)"><rect id="Rectangle_82" data-name="Rectangle 82" width="42" height="42" transform="translate(-17767 -19097)" fill="#442aff" opacity="0"></rect><g id="svgexport-17_27_" data-name="svgexport-17 (27)" transform="translate(-17765 -19095)"><path id="Path_31" data-name="Path 31" d="M27.93,33.494l3.518-7.038,1.049.525-3.518,7.038ZM32.663,27.6l1.579,2.632-1.579,2.632,1.006.6,1.942-3.236L33.669,27ZM26.8,27l-1.942,3.236L26.8,33.468l1.006-.6-1.579-2.632L27.8,27.6ZM5,8.521H8.521V5H5ZM6.174,6.174H7.347V7.347H6.174ZM9.694,8.521h3.521V5H9.694Zm1.174-2.347h1.174V7.347H10.868Zm3.521,2.347h3.521V5H14.389Zm1.174-2.347h1.174V7.347H15.562Zm8.215,14.67V13.8a1.763,1.763,0,0,0-1.76-1.76H6.76A1.763,1.763,0,0,0,5,13.8v7.041A1.763,1.763,0,0,0,6.76,22.6H22.017A1.763,1.763,0,0,0,23.777,20.843Zm-1.174,0a.587.587,0,0,1-.587.587H6.76a.587.587,0,0,1-.587-.587V13.8a.587.587,0,0,1,.587-.587H22.017a.587.587,0,0,1,.587.587Z" transform="translate(-1.653 -1.653)" fill="#442aff"></path><path id="Path_32" data-name="Path 32" d="M17,21.756,12.3,19.409a.587.587,0,0,0-.849.525v4.694a.587.587,0,0,0,.849.525L17,22.806a.587.587,0,0,0,0-1.05Zm-4.37,1.923v-2.8l2.8,1.4ZM34.339,17H24.951v3.521h9.389Zm-1.174,2.347H26.124V18.174h7.041Zm1.174,2.347H24.951v3.521h9.389Zm-1.174,2.347H26.124V22.868h7.041ZM5,33.43h5.868V28.736H5Zm1.174-3.521H9.694v2.347H6.174Zm5.868-1.174h1.174v1.174H12.041Zm2.347,0h5.868v1.174H14.389Zm-2.347,2.347h8.215v1.174H12.041Z" transform="translate(-1.653 -6.611)" fill="#442aff"></path><path id="Path_33" data-name="Path 33" d="M36.031,26.019a.617.617,0,0,1-.366-.911,1.773,1.773,0,0,0-.27-2.161l-.361-.361V2.76A1.763,1.763,0,0,0,33.273,1H2.76A1.763,1.763,0,0,0,1,2.76V27.405a1.763,1.763,0,0,0,1.76,1.76H19.777v.251a1.778,1.778,0,0,0,1.35,1.723.617.617,0,0,1,.366.911,1.773,1.773,0,0,0,.27,2.161L22.947,35.4a1.777,1.777,0,0,0,2.173.263.616.616,0,0,1,.9.386,1.772,1.772,0,0,0,1.719,1.336h1.675a1.777,1.777,0,0,0,1.723-1.35.617.617,0,0,1,.911-.366,1.772,1.772,0,0,0,2.161-.271L35.4,34.21a1.777,1.777,0,0,0,.263-2.173.617.617,0,0,1,.386-.9,1.771,1.771,0,0,0,1.336-1.718V27.742a1.776,1.776,0,0,0-1.35-1.722ZM2.174,2.76a.587.587,0,0,1,.587-.587H33.273a.587.587,0,0,1,.587.587V8.041H2.174Zm17.6,24.981v.251H2.76a.587.587,0,0,1-.587-.587V9.215H33.86V21.5a1.777,1.777,0,0,0-1.821,0,.616.616,0,0,1-.9-.385,1.772,1.772,0,0,0-1.719-1.337H27.742a1.778,1.778,0,0,0-1.723,1.35.6.6,0,0,1-.361.407.611.611,0,0,1-.55-.042,1.771,1.771,0,0,0-2.161.271l-1.184,1.184a1.777,1.777,0,0,0-.263,2.173.617.617,0,0,1-.386.9,1.771,1.771,0,0,0-1.336,1.718Zm16.43,1.675a.605.605,0,0,1-.465.586,1.788,1.788,0,0,0-1.086,2.647.6.6,0,0,1-.092.732l-1.184,1.184a.6.6,0,0,1-.743.085A1.789,1.789,0,0,0,30,35.755a.6.6,0,0,1-.582.452H27.742a.6.6,0,0,1-.585-.466,1.788,1.788,0,0,0-2.648-1.084.6.6,0,0,1-.731-.092l-1.184-1.184a.6.6,0,0,1-.084-.743A1.79,1.79,0,0,0,21.4,30a.6.6,0,0,1-.453-.582V27.742a.605.605,0,0,1,.465-.586A1.788,1.788,0,0,0,22.5,24.509a.6.6,0,0,1,.092-.732l1.184-1.184a.6.6,0,0,1,.743-.084,1.791,1.791,0,0,0,2.64-1.106.6.6,0,0,1,.581-.452h1.675a.6.6,0,0,1,.585.465A1.79,1.79,0,0,0,32.65,22.5a.6.6,0,0,1,.732.092l1.184,1.184a.6.6,0,0,1,.084.743,1.79,1.79,0,0,0,1.1,2.64.6.6,0,0,1,.452.582Z" fill="#442aff"></path></g></g></g></svg>