<svg xmlns="http://www.w3.org/2000/svg" id="icon" width="80" height="80" viewBox="0 0 80 80"><rect id="Rectangle_79" data-name="Rectangle 79" width="80" height="80" rx="12" fill="#ebf2fc"></rect><g id="Group_45" data-name="Group 45" transform="translate(17720 19112)"><rect id="Rectangle_83" data-name="Rectangle 83" width="50" height="50" transform="translate(-17705 -19097)" fill="#442aff" opacity="0"></rect><g id="svgexport-17_25_" data-name="svgexport-17 (25)" transform="translate(-17700.018 -19092.018)"><path id="Path_24" data-name="Path 24" d="M160.1,144H145.932A1.935,1.935,0,0,0,144,145.932V160.1a1.935,1.935,0,0,0,1.932,1.932H160.1a1.935,1.935,0,0,0,1.932-1.932V145.932A1.935,1.935,0,0,0,160.1,144Zm.644,16.1a.645.645,0,0,1-.644.644H145.932a.645.645,0,0,1-.644-.644V145.932a.645.645,0,0,1,.644-.644H160.1a.645.645,0,0,1,.644.644Z" transform="translate(-133.694 -133.694)" fill="#442aff"></path><path id="Path_25" data-name="Path 25" d="M179.676,216.187a.644.644,0,0,0-.911,0l-2.577,2.577a.644.644,0,0,0,0,.911l2.577,2.577a.644.644,0,0,0,.911-.911l-2.121-2.121,2.121-2.121A.644.644,0,0,0,179.676,216.187Zm6.441,0a.644.644,0,0,0-.911.911l2.121,2.121-2.121,2.121a.644.644,0,0,0,.911.911l2.577-2.577a.644.644,0,0,0,0-.911Zm-2.876-.169a.644.644,0,0,0-.781.469l-1.288,5.153a.644.644,0,0,0,1.25.312l1.288-5.153A.644.644,0,0,0,183.241,216.018Z" transform="translate(-163.117 -199.895)" fill="#442aff"></path><path id="Path_26" data-name="Path 26" d="M47.563,32.1a1.936,1.936,0,0,0,1.822-1.288h2.043a.644.644,0,0,0,.611-.44L53.18,26.95H54a.644.644,0,0,0,0-1.288H52.716a.644.644,0,0,0-.611.44l-1.141,3.424H49.384a1.931,1.931,0,0,0-2.466-1.177v-1.4a3.225,3.225,0,0,0-2.7-3.178,1.931,1.931,0,0,0-1.162-2.508v-4.62a.644.644,0,1,0-1.288,0v4.62a1.931,1.931,0,0,0-1.177,2.466h-1.51A1.931,1.931,0,0,0,37.9,21.264v-4.62a.644.644,0,1,0-1.288,0v4.62a1.931,1.931,0,0,0-1.177,2.466H30.06a1.931,1.931,0,0,0-1.177-2.466v-4.62a.644.644,0,1,0-1.288,0v4.62a1.931,1.931,0,0,0-1.162,2.508,3.225,3.225,0,0,0-2.7,3.178v1.4a1.931,1.931,0,0,0-2.466,1.177H19.685L18.543,26.1a.644.644,0,0,0-.611-.44H16.644a.644.644,0,1,0,0,1.288h.824l1.141,3.424a.644.644,0,0,0,.611.44h2.043a1.931,1.931,0,0,0,2.466,1.177V33.5a1.931,1.931,0,0,0-2.466,1.177h-4.62a.644.644,0,1,0,0,1.288h4.62a1.931,1.931,0,0,0,2.466,1.177v1.51a1.931,1.931,0,0,0-2.466,1.177H19.221a.644.644,0,0,0-.611.44L17.468,43.7h-.824a.644.644,0,1,0,0,1.288h1.288a.644.644,0,0,0,.611-.44l1.141-3.424h1.579A1.931,1.931,0,0,0,23.73,42.3v1.4a3.225,3.225,0,0,0,2.7,3.178,1.931,1.931,0,0,0,1.162,2.508V54a.644.644,0,0,0,1.288,0v-4.62a1.931,1.931,0,0,0,1.177-2.466h5.375a1.931,1.931,0,0,0,1.177,2.466V54A.644.644,0,0,0,37.9,54v-4.62a1.931,1.931,0,0,0,1.177-2.466h1.51a1.931,1.931,0,0,0,1.177,2.466V54a.644.644,0,0,0,1.288,0v-4.62a1.931,1.931,0,0,0,1.162-2.508,3.225,3.225,0,0,0,2.7-3.178V42.3a1.931,1.931,0,0,0,2.466-1.177h1.579L52.1,44.546a.644.644,0,0,0,.611.44H54A.644.644,0,1,0,54,43.7H53.18l-1.141-3.424a.644.644,0,0,0-.611-.44H49.384a1.931,1.931,0,0,0-2.466-1.177v-1.51a1.931,1.931,0,0,0,2.466-1.177H54a.644.644,0,0,0,0-1.288h-4.62A1.931,1.931,0,0,0,46.919,33.5v-1.51A1.923,1.923,0,0,0,47.563,32.1Zm0-2.577a.644.644,0,1,1-.644.644.644.644,0,0,1,.644-.644ZM23.085,41.121a.644.644,0,1,1,.644-.644.644.644,0,0,1-.644.644Zm0-5.153a.644.644,0,1,1,.644-.644A.644.644,0,0,1,23.085,35.968Zm0-5.153a.644.644,0,1,1,.644-.644A.644.644,0,0,1,23.085,30.815ZM42.41,22.441a.644.644,0,1,1-.644.644A.644.644,0,0,1,42.41,22.441Zm-5.153,0a.644.644,0,1,1-.644.644A.644.644,0,0,1,37.256,22.441Zm-9.018,0a.644.644,0,1,1-.644.644A.644.644,0,0,1,28.239,22.441Zm0,25.765a.644.644,0,1,1,.644-.644.644.644,0,0,1-.644.644Zm9.018,0a.644.644,0,1,1,.644-.644.644.644,0,0,1-.644.644Zm5.153,0a.644.644,0,1,1,.644-.644.644.644,0,0,1-.644.644ZM45.63,43.7A1.935,1.935,0,0,1,43.7,45.63H26.95A1.935,1.935,0,0,1,25.018,43.7V26.95a1.935,1.935,0,0,1,1.932-1.932H43.7A1.935,1.935,0,0,1,45.63,26.95Zm1.932-3.865a.644.644,0,1,1-.644.644.644.644,0,0,1,.644-.644Zm0-5.153a.644.644,0,1,1-.644.644.644.644,0,0,1,.644-.644Z" transform="translate(-16 -16)" fill="#442aff"></path></g></g></svg>