<svg xmlns="http://www.w3.org/2000/svg" id="icon" width="80" height="80" viewBox="0 0 80 80"><rect id="Rectangle_79" data-name="Rectangle 79" width="80" height="80" rx="12" fill="#ebf2fc"></rect><g id="Group_47" data-name="Group 47" transform="translate(17657 19117)"><rect id="Rectangle_86" data-name="Rectangle 86" width="40" height="40" transform="translate(-17637 -19097)" fill="#442aff" opacity="0"></rect><g id="svgexport-17_23_" data-name="svgexport-17 (23)" transform="translate(-17632.457 -19092.455)"><path id="Path_17" data-name="Path 17" d="M35.589,31.971,45.9,21.662l5.352,5.352L40.941,37.323M37.17,41.1,27.014,51.251,21.662,45.9,31.817,35.743M42.831,24.729l3.122,3.122m-6.139-.105,2.23,2.23m-14.3,9.838,2.23,2.23m-5.247.787,3.122,3.122m22.2,4.1,1.87,1.87" transform="translate(-21.633 -21.633)" fill="none" stroke="#442aff" stroke-width="1.5"></path><path id="Path_18" data-name="Path 18" d="M53.735,59.94,76.322,82.526l3.663-.1.1-3.663L57.5,56.174Z" transform="translate(-51.662 -53.945)" fill="none" stroke="#442aff" stroke-width="1.5"></path><path id="Path_19" data-name="Path 19" d="M36.152,26.773l-4.839-4.839-2.86,2.86m-1.828-.877-2.7-2.7-2.7,2.7,2.7,2.7m10.558,4.2-3.812,3.812" transform="translate(-21.214 -21.213)" fill="none" stroke="#442aff" stroke-width="1.5"></path></g></g></svg>