<svg xmlns="http://www.w3.org/2000/svg" id="icon" width="80" height="80" viewBox="0 0 80 80"><rect id="Rectangle_79" data-name="Rectangle 79" width="80" height="80" rx="12" fill="#ebf2fc"></rect><g id="Group_48" data-name="Group 48" transform="translate(17533 19105)"><rect id="Rectangle_81" data-name="Rectangle 81" width="64" height="64" transform="translate(-17525 -19097)" fill="#442aff" opacity="0"></rect><g id="svgexport-17_22_" data-name="svgexport-17 (22)" transform="translate(-17517.633 -19088.404)"><path id="Path_15" data-name="Path 15" d="M29.974,35.239a4.468,4.468,0,1,0-4.468-4.468A4.472,4.472,0,0,0,29.974,35.239Zm0-7.825a3.358,3.358,0,1,1-3.358,3.358A3.359,3.359,0,0,1,29.974,27.413Zm0-10.173a5.25,5.25,0,1,0-5.25-5.25A5.253,5.253,0,0,0,29.974,17.24Zm-3.768-3.546h.733a12.28,12.28,0,0,0,.239,1.338,4.167,4.167,0,0,1-.971-1.338Zm7.909-1.7a4.147,4.147,0,0,1-.05.594h-.943c.017-.405.017-.816,0-1.227h.943a3.932,3.932,0,0,1,.055.627Zm-2.1.594H30.529V11.357h1.476a11.3,11.3,0,0,1,0,1.227Zm-3.452,3.291a13.193,13.193,0,0,1-.505-2.181h1.365v2.392a4.061,4.061,0,0,1-.86-.211Zm1.97-2.181h1.376a12.2,12.2,0,0,1-.516,2.181,4.061,4.061,0,0,1-.86.211Zm0-3.446V7.889a4.061,4.061,0,0,1,.86.211,13.081,13.081,0,0,1,.505,2.148Zm-1.11,0H28.065A13.627,13.627,0,0,1,28.559,8.1a3.98,3.98,0,0,1,.86-.211Zm0,1.11v1.227H27.954c-.017-.405-.017-.816,0-1.227h1.46Zm-2.575,1.227h-.96a4.215,4.215,0,0,1-.05-.594,3.875,3.875,0,0,1,.055-.627h.96a11.3,11.3,0,0,0,0,1.227Zm5.944,2.436a12.085,12.085,0,0,0,.239-1.326h.716a4.068,4.068,0,0,1-.96,1.326Zm.943-4.773h-.716c-.061-.433-.139-.866-.239-1.3A4.127,4.127,0,0,1,33.732,10.248Zm-6.543-1.31c-.1.438-.178.877-.233,1.31h-.727A4.167,4.167,0,0,1,27.188,8.938ZM15.267,31.326a2.482,2.482,0,0,0,1.526-4.451,2.5,2.5,0,0,0-2.5-2.5,2.111,2.111,0,0,0-.716.122A3.466,3.466,0,0,0,6.942,25.9a3.371,3.371,0,0,0,.033.472,2.5,2.5,0,0,0,.522,4.95Zm-9.157-2.5A1.393,1.393,0,0,1,7.5,27.43h.178a.555.555,0,0,0,.527-.738,2.308,2.308,0,0,1-.144-.788,2.358,2.358,0,0,1,4.662-.511.544.544,0,0,0,.333.394.567.567,0,0,0,.516-.05,1.345,1.345,0,0,1,.738-.255,1.386,1.386,0,0,1,1.382,1.4,1.668,1.668,0,0,0-.039.178.553.553,0,0,0,.283.566,1.373,1.373,0,0,1,.738,1.2,1.393,1.393,0,0,1-1.387,1.393H7.5A1.393,1.393,0,0,1,6.11,28.823Zm48.284-5.844H47.179a.557.557,0,0,0-.555.555v1.11H44.959a.557.557,0,0,0-.555.555v9.435a.557.557,0,0,0,.555.555h7.77a.557.557,0,0,0,.555-.555v-1.11h1.11a.557.557,0,0,0,.555-.555V23.534A.557.557,0,0,0,54.394,22.979Zm-2.22,11.1h-6.66V25.754h5.045l1.615,1.565Zm1.665-1.665h-.555V27.086a.567.567,0,0,0-.166-.4L51.175,24.8a.565.565,0,0,0-.388-.155H47.734v-.555h6.1Z" transform="translate(-5 -6.74)" fill="#442aff"></path><path id="Path_16" data-name="Path 16" d="M46.959,34.1a.557.557,0,0,0,.555.555h4.44a.555.555,0,1,0,0-1.11h-4.44A.557.557,0,0,0,46.959,34.1Zm4.995,1.11h-4.44a.555.555,0,0,0,0,1.11h4.44a.555.555,0,1,0,0-1.11ZM14.315,26.872a.562.562,0,0,0,.76-.205q.275-.466.566-.916a.556.556,0,0,0-.927-.616c-.211.316-.411.644-.6.977a.559.559,0,0,0,.2.76Zm2.015-2.431a.53.53,0,0,0,.427-.205,16.725,16.725,0,0,1,1.271-1.393.553.553,0,1,0-.783-.783c-.472.472-.927.966-1.349,1.482a.555.555,0,0,0,.078.783.566.566,0,0,0,.35.128ZM19.088,21.7a.559.559,0,0,0,.35-.122,18.359,18.359,0,0,1,1.526-1.1.55.55,0,0,0,.161-.766.557.557,0,0,0-.766-.166c-.555.361-1.1.755-1.621,1.171a.556.556,0,0,0,.35.988ZM22.345,19.6a.571.571,0,0,0,.25-.061c.322-.161.644-.316.971-.461a.557.557,0,1,0-.444-1.021c-.35.155-.694.316-1.032.488a.558.558,0,0,0,.25,1.054Zm24.308,7.076a.552.552,0,0,0,.483.277.56.56,0,0,0,.277-.072.554.554,0,0,0,.2-.76c-.189-.333-.394-.655-.6-.977a.556.556,0,0,0-.927.616q.3.45.566.916Zm-5.888-6.194a17.478,17.478,0,0,1,1.526,1.1.556.556,0,1,0,.7-.866c-.522-.416-1.066-.81-1.621-1.171a.556.556,0,0,0-.6.932Zm4.207,3.757a.555.555,0,0,0,.427.205.524.524,0,0,0,.35-.128.555.555,0,0,0,.078-.783,19.929,19.929,0,0,0-1.349-1.482.553.553,0,1,0-.783.783c.444.444.871.91,1.271,1.393Zm-6.815-5.161c.327.144.655.3.971.461a.591.591,0,0,0,.25.061.557.557,0,0,0,.25-1.054c-.339-.172-.683-.333-1.032-.488a.557.557,0,1,0-.444,1.021Zm3.624,22.743c-1.743,1.249-7.942,7.592-8.192,7.848A4.919,4.919,0,0,1,30.2,51.019H24.887a1.194,1.194,0,0,1-1.26-1.315,1.227,1.227,0,0,1,1.288-1.293h5.55a2.491,2.491,0,0,0,2.492-2.492,2.175,2.175,0,0,0-.488-1.449,10.28,10.28,0,0,0,3-1.077l.721.738a.577.577,0,0,0,.794,0l1.9-1.948a.556.556,0,0,0,0-.777l-.721-.738a8.753,8.753,0,0,0,1.127-2.78H40.3a.557.557,0,0,0,.555-.555V34.58a.557.557,0,0,0-.555-.555h-1.01a8.806,8.806,0,0,0-1.127-2.78l.721-.738a.556.556,0,0,0,0-.777l-1.9-1.948a.577.577,0,0,0-.794,0l-.71.727a8.457,8.457,0,0,0-2.708-1.143V26.322a.557.557,0,0,0-.555-.555h-2.7a.557.557,0,0,0-.555.555v1.043a8.457,8.457,0,0,0-2.708,1.143l-.71-.727a.577.577,0,0,0-.794,0l-1.9,1.948a.556.556,0,0,0,0,.777l.721.738a8.753,8.753,0,0,0-1.127,2.78H21.43a.557.557,0,0,0-.555.555v2.753a.557.557,0,0,0,.555.555h1.01a8.806,8.806,0,0,0,1.127,2.78l-.721.738a.556.556,0,0,0,0,.777l1.1,1.121a5.235,5.235,0,0,1-1.127-.644A5.184,5.184,0,0,0,19.7,41.629h-.511a5.227,5.227,0,0,0-3.458,1.31L7.189,50.475a.548.548,0,0,0-.189.4.574.574,0,0,0,.161.411l8.064,8.186a.555.555,0,0,0,.394.166.529.529,0,0,0,.394-.172l1.77-1.843a3.071,3.071,0,0,1,2.065-.8H32.6a4.158,4.158,0,0,0,3.169-1.46l8.142-9.052c1.732-2.015,1.582-3.569.866-4.357a2.243,2.243,0,0,0-3-.128ZM23.45,37.244a.56.56,0,0,0-.549-.466h-.916V35.135H22.9a.555.555,0,0,0,.549-.466,7.628,7.628,0,0,1,1.288-3.175.548.548,0,0,0-.061-.7l-.655-.672,1.127-1.154.644.655a.551.551,0,0,0,.721.061,7.3,7.3,0,0,1,3.1-1.31.555.555,0,0,0,.461-.549v-.943h1.587v.943a.559.559,0,0,0,.461.549,7.362,7.362,0,0,1,3.1,1.31.55.55,0,0,0,.721-.061l.644-.655,1.127,1.154-.655.672a.555.555,0,0,0-.061.7,7.628,7.628,0,0,1,1.288,3.175.56.56,0,0,0,.549.466h.916v1.643H38.84a.555.555,0,0,0-.549.466A7.628,7.628,0,0,1,37,40.419a.548.548,0,0,0,.061.7l.655.672L36.592,42.95l-.644-.655a.557.557,0,0,0-.721-.061c-2.137,1.5-6.416,1.959-8.708,0a.557.557,0,0,0-.721.061l-.644.655L24.027,41.8l.655-.672a.555.555,0,0,0,.061-.7,7.628,7.628,0,0,1-1.288-3.175Zm19.635,8.325-8.142,9.052A3.052,3.052,0,0,1,32.613,55.7H19.853a4.178,4.178,0,0,0-2.842,1.121l-1.4,1.454L8.36,50.914l8.1-7.148a4.112,4.112,0,0,1,2.725-1.032H19.7a4.084,4.084,0,0,1,2.453.816,5.007,5.007,0,0,0,3.03,1.121h5.206c.244,0,1.46.089,1.46,1.249a1.4,1.4,0,0,1-1.4,1.382H24.921a2.626,2.626,0,0,0-1.754.688,2.305,2.305,0,0,0-.649,1.709,2.378,2.378,0,0,0,.66,1.743,2.54,2.54,0,0,0,1.715.683H30.2a6.034,6.034,0,0,0,4.168-1.671c.061-.067,6.393-6.543,8.058-7.731a1.188,1.188,0,0,1,1.537-.028c.377.416.372,1.421-.877,2.875Z" transform="translate(-5.89 -11.754)" fill="#442aff"></path></g></g></svg>