<svg xmlns="http://www.w3.org/2000/svg" id="icon" width="80" height="80" viewBox="0 0 80 80"><rect id="Rectangle_79" data-name="Rectangle 79" width="80" height="80" rx="12" fill="#ebf2fc"></rect><g id="Group_46" data-name="Group 46" transform="translate(17687 19118)"><rect id="Rectangle_84" data-name="Rectangle 84" width="45" height="45" transform="translate(-17669 -19100)" fill="#442aff" opacity="0"></rect><g id="svgexport-17_26_" data-name="svgexport-17 (26)" transform="translate(-17666.096 -19098.064)"><path id="Path_27" data-name="Path 27" d="M157.3,1320.453h-34.2a2.09,2.09,0,0,1-2.09-2.085v-23.284a2.093,2.093,0,0,1,2.09-2.085h2.241a.542.542,0,0,1,0,1.084H123.09a1,1,0,0,0-1,1v23.284a1,1,0,0,0,1,1h34.2a1,1,0,0,0,1-1v-23.284a1.007,1.007,0,0,0-1-1h-2.241a.542.542,0,0,1,0-1.084H157.3a2.085,2.085,0,0,1,2.085,2.085v23.284A2.071,2.071,0,0,1,157.3,1320.453Z" transform="translate(-121 -1285.79)" fill="#442aff" fill-rule="evenodd"></path><path id="Path_28" data-name="Path 28" d="M2617.321,6016.977h-9.546a.533.533,0,0,1-.531-.475.545.545,0,0,1,.4-.6c1.308-.341,1.431-3.426,1.369-4.482a.546.546,0,1,1,1.09-.062,9.137,9.137,0,0,1-.822,4.527h6.528a8.964,8.964,0,0,1-.827-4.527.548.548,0,0,1,.576-.514.54.54,0,0,1,.508.576c-.061,1.056.062,4.141,1.4,4.482a.55.55,0,0,1,.4.6A.562.562,0,0,1,2617.321,6016.977Z" transform="translate(-2593.344 -5977.267)" fill="#442aff" fill-rule="evenodd"></path><path id="Path_29" data-name="Path 29" d="M143.418,40.5H136.99a.542.542,0,0,1,0-1.084h6.427a.539.539,0,0,1,.542.542A.546.546,0,0,1,143.418,40.5Zm15.426-8.171h-37.3a.542.542,0,1,1,0-1.084h37.3a.54.54,0,0,1,.548.542A.547.547,0,0,1,158.843,32.326ZM141.406,35h-2.437a.542.542,0,1,1,0-1.084h2.437a.542.542,0,1,1,0,1.084Zm12.458-5.17H126.516a1.728,1.728,0,0,1-1.727-1.727V6.348A3.349,3.349,0,0,1,128.132,3h24.122A3.353,3.353,0,0,1,155.6,6.348V28.095A1.727,1.727,0,0,1,153.864,29.827ZM128.132,4.079a2.262,2.262,0,0,0-2.258,2.258V28.095a.646.646,0,0,0,.643.643h27.347a.648.648,0,0,0,.648-.643V6.337a2.262,2.262,0,0,0-2.258-2.258Z" transform="translate(-121 -3)" fill="#442aff" fill-rule="evenodd"></path><path id="Path_30" data-name="Path 30" d="M829.27,310.74H799.542a.542.542,0,0,1,0-1.084H829.27a.542.542,0,0,1,0,1.084Zm-26.475-1.7a1.52,1.52,0,1,1,1.52-1.52A1.517,1.517,0,0,1,802.795,309.04Zm0-1.956a.436.436,0,1,0,.43.436A.435.435,0,0,0,802.795,307.084Zm3.711,1.956a1.52,1.52,0,1,1,1.526-1.52A1.525,1.525,0,0,1,806.506,309.04Zm0-1.956a.436.436,0,1,0,.436.436A.444.444,0,0,0,806.506,307.084Zm3.717,1.956a1.52,1.52,0,1,1,1.52-1.52A1.522,1.522,0,0,1,810.223,309.04Zm0-1.956a.436.436,0,0,0,0,.872.436.436,0,0,0,0-.872Zm-4.164,12.352a.571.571,0,0,1-.1-.006.53.53,0,0,1-.425-.637l1.09-5.678a.53.53,0,0,1,.637-.425.525.525,0,0,1,.425.632L806.6,319A.549.549,0,0,1,806.059,319.436Zm-1.543-.548a.569.569,0,0,1-.391-.162l-2.28-2.291a.55.55,0,0,1,0-.766l2.28-2.28a.543.543,0,0,1,.771.766l-1.9,1.9,1.9,1.906a.557.557,0,0,1,0,.771A.542.542,0,0,1,804.516,318.888Zm4.181,0a.542.542,0,0,1-.38-.928l1.9-1.906-1.9-1.9a.541.541,0,0,1,.766-.766l2.28,2.28a.54.54,0,0,1,0,.766l-2.28,2.291A.557.557,0,0,1,808.7,318.888Zm9.49-2.141h-5.153a.545.545,0,0,1,0-1.09h5.153a.545.545,0,0,1,0,1.09Zm1.7,2.688H813.04a.542.542,0,0,1,0-1.084h6.852a.542.542,0,1,1,0,1.084Zm6.685,0h-4.751a.54.54,0,0,1-.548-.542v-5.678a.54.54,0,0,1,.548-.542h4.751a.54.54,0,0,1,.548.542v5.678A.547.547,0,0,1,826.576,319.436Zm-4.22-1.084h3.672v-4.594h-3.672Zm-8.059,9.764H802.823a.539.539,0,0,1-.542-.542V321.9a.539.539,0,0,1,.542-.542H814.3a.539.539,0,0,1,.542.542v5.678A.539.539,0,0,1,814.3,328.116Zm-10.932-1.084h10.39v-4.594h-10.39Zm23.211-4.594h-8.758a.542.542,0,1,1,0-1.084h8.758a.54.54,0,0,1,.548.542A.547.547,0,0,1,826.576,322.437Zm0,2.839h-8.758a.542.542,0,1,1,0-1.084h8.758a.54.54,0,0,1,.548.542A.547.547,0,0,1,826.576,325.277Zm0,2.834h-8.758a.542.542,0,1,1,0-1.084h8.758a.54.54,0,0,1,.548.542A.547.547,0,0,1,826.576,328.11Z" transform="translate(-795.211 -304.307)" fill="#442aff" fill-rule="evenodd"></path></g></g></svg>