<svg xmlns="http://www.w3.org/2000/svg" id="icon" width="80" height="80" viewBox="0 0 80 80"><rect id="Rectangle_79" data-name="Rectangle 79" width="80" height="80" rx="12" fill="#ebf2fc"></rect><g id="Group_37" data-name="Group 37" transform="translate(14 14)"><g id="Rectangle_80" data-name="Rectangle 80" fill="#442aff" stroke="#707070" stroke-width="1" opacity="0"><rect width="52" height="52" stroke="none"></rect><rect x="0.5" y="0.5" width="51" height="51" fill="none"></rect></g><g id="svgexport-21_2_" data-name="svgexport-21 (2)" transform="translate(5.783 5.783)"><path id="Path_12" data-name="Path 12" d="M27.09,18a9.3,9.3,0,1,0,9.3,9.3,9.3,9.3,0,0,0-9.3-9.3Zm1.417,14v3.142a7.588,7.588,0,0,1-2.837,0V32a.664.664,0,0,0-.371-.6,4.09,4.09,0,0,1-.659-6.953v3.517a.664.664,0,0,0,.664.664h3.568a.664.664,0,0,0,.664-.664V24.444a4.089,4.089,0,0,1-.659,6.961.664.664,0,0,0-.372.6Zm1.329,2.778V32.4a5.416,5.416,0,0,0-.714-9.7.664.664,0,0,0-.914.616V27.3H25.969v-3.98a.664.664,0,0,0-.914-.616,5.416,5.416,0,0,0-.714,9.69v2.382a7.974,7.974,0,1,1,5.5,0Z" transform="translate(-6.632 -6.703)" fill="#442aff"></path><path id="Path_13" data-name="Path 13" d="M34.736,26.96a.616.616,0,0,1,.575-.46h.864a.665.665,0,0,0,.651-.537,13.786,13.786,0,0,0,0-5.371.664.664,0,0,0-.651-.538H35.31a.616.616,0,0,1-.575-.46,12.149,12.149,0,0,0-.794-1.912.616.616,0,0,1,.081-.734l.614-.614a.664.664,0,0,0,.081-.841,13.948,13.948,0,0,0-3.8-3.8.666.666,0,0,0-.841.081l-.613.614a.617.617,0,0,1-.734.081,12.133,12.133,0,0,0-1.912-.794.615.615,0,0,1-.46-.575v-.864a.664.664,0,0,0-.538-.651,13.856,13.856,0,0,0-5.372,0,.664.664,0,0,0-.538.651V11.1a.615.615,0,0,1-.46.575,12.132,12.132,0,0,0-1.912.794.617.617,0,0,1-.734-.081l-.614-.614a.666.666,0,0,0-.841-.081,13.948,13.948,0,0,0-3.8,3.8.664.664,0,0,0,.081.841l.614.613a.617.617,0,0,1,.081.734,12.162,12.162,0,0,0-.794,1.912.616.616,0,0,1-.575.46H10.1a.664.664,0,0,0-.652.538,13.786,13.786,0,0,0,0,5.371.664.664,0,0,0,.652.537h.863a.616.616,0,0,1,.575.46,12.136,12.136,0,0,0,.794,1.911.617.617,0,0,1-.081.734l-.614.614a.664.664,0,0,0-.081.841,13.948,13.948,0,0,0,3.8,3.8.664.664,0,0,0,.841-.081l.614-.614a.618.618,0,0,1,.734-.081,12.133,12.133,0,0,0,1.912.794.615.615,0,0,1,.46.575v.864a.665.665,0,0,0,.537.651,13.789,13.789,0,0,0,5.372,0,.665.665,0,0,0,.538-.651v-.864a.615.615,0,0,1,.46-.575,12.132,12.132,0,0,0,1.912-.794.618.618,0,0,1,.734.081l.613.614a.664.664,0,0,0,.841.081,13.948,13.948,0,0,0,3.8-3.8.664.664,0,0,0-.081-.841l-.614-.613a.616.616,0,0,1-.08-.735,12.183,12.183,0,0,0,.793-1.911Zm-1.267-.4a10.842,10.842,0,0,1-.706,1.7,1.945,1.945,0,0,0,.32,2.287l.219.219a12.61,12.61,0,0,1-2.679,2.678l-.219-.218a1.944,1.944,0,0,0-2.286-.321,10.809,10.809,0,0,1-1.7.707,1.947,1.947,0,0,0-1.387,1.841v.3a12.4,12.4,0,0,1-3.788,0v-.3a1.947,1.947,0,0,0-1.387-1.841,10.809,10.809,0,0,1-1.7-.707,1.945,1.945,0,0,0-2.287.321l-.219.218a12.616,12.616,0,0,1-2.678-2.678l.218-.219a1.947,1.947,0,0,0,.322-2.286,10.73,10.73,0,0,1-.708-1.7,1.947,1.947,0,0,0-1.841-1.387h-.3a12.356,12.356,0,0,1,0-3.788h.3A1.947,1.947,0,0,0,12.8,20a10.756,10.756,0,0,1,.708-1.7,1.947,1.947,0,0,0-.322-2.287l-.219-.219a12.616,12.616,0,0,1,2.679-2.678l.219.218a1.947,1.947,0,0,0,2.286.321,10.809,10.809,0,0,1,1.7-.707A1.947,1.947,0,0,0,21.242,11.1v-.3a12.4,12.4,0,0,1,3.788,0v.3a1.947,1.947,0,0,0,1.387,1.841,10.809,10.809,0,0,1,1.7.707,1.946,1.946,0,0,0,2.286-.321l.219-.218A12.615,12.615,0,0,1,33.3,15.789l-.218.219a1.945,1.945,0,0,0-.321,2.286,10.815,10.815,0,0,1,.707,1.7h0a1.947,1.947,0,0,0,1.841,1.387h.3a12.356,12.356,0,0,1,0,3.788h-.3a1.947,1.947,0,0,0-1.841,1.387ZM40.554,9.322a3.322,3.322,0,1,0-3.322,3.322,3.322,3.322,0,0,0,3.322-3.322Zm-5.316,0a1.993,1.993,0,1,1,1.993,1.993A1.993,1.993,0,0,1,35.238,9.322ZM12.645,37.231a3.322,3.322,0,1,0-3.322,3.322,3.322,3.322,0,0,0,3.322-3.322Zm-5.316,0a1.993,1.993,0,1,1,1.993,1.993A1.993,1.993,0,0,1,7.329,37.231Z" transform="translate(-2.677 -2.677)" fill="#442aff"></path><path id="Path_14" data-name="Path 14" d="M4.906,31.234A19.275,19.275,0,0,1,31.234,4.906l.666-1.15A20.6,20.6,0,0,0,3.756,31.9ZM38.292,11.965A19.276,19.276,0,0,1,11.98,38.3l-.664,1.152A20.6,20.6,0,0,0,39.442,11.3Z" transform="translate(-0.999 -0.999)" fill="#442aff"></path></g></g></svg>